<?xml version="1.0"?>
<svg xmlns="http://www.w3.org/2000/svg" height="512px" viewBox="-42 0 512 512" width="512px"><g><path d="m426.386719 351.082031c-19.574219-156.621093-17.839844-167.410156-35.300781-198.746093v-132.335938c0-11.046875-8.953126-20-20-20h-78.667969c-8.894531 0-16.71875 5.875-19.203125 14.417969l-18.679688 64.25h-75.621094l-25.144531-65.804688c-2.960937-7.746093-10.394531-12.863281-18.683593-12.863281h-78.667969c-5.351563 0-10.484375 2.148438-14.242188 5.960938-3.761719 3.8125-5.832031 8.976562-5.753906 14.332031l1.878906 128.761719c-22.4375 37.871093-18.800781 64.429687-37.183593 202.027343-10.570313 84.566407 55.15625 160.917969 142.054687 160.917969h141.160156c87.078125 0 152.609375-76.492188 142.054688-160.917969zm-133.96875-154.414062c-11.042969 0-20 8.953125-20 20v19.332031h-117.332031v-19.332031c0-11.046875-8.953126-20-20-20-11.046876 0-20 8.953125-20 20v16.199219c-24.023438-7.460938-42.734376-27.621094-47.738282-53.070313 16.238282-36.289063 52.691406-61.128906 94.203125-61.128906h104.40625c41.511719 0 77.960938 24.839843 94.199219 61.128906-5.003906 25.449219-23.710938 45.609375-47.738281 53.070313v-16.199219c0-11.046875-8.953125-20-20-20zm58.667969-156.667969v66.820312c-16.34375-12.117187-35.308594-20.816406-55.777344-25.113281l12.125-41.707031zm-229.769532 0 15.59375 40.808594c-21.746094 3.804687-41.917968 12.546875-59.234375 25.097656l-.960937-65.90625zm-1.332031 429.394531 5.925781-15.472656c13.792969-36.039063 48.359375-59.921875 87.09375-59.921875 39.113282 0 74.347656 24.703125 87.675782 61.476562l5.179687 14.28125c-17.675781 3.730469-24.570313 1.632813-92.9375 2.242188-66.359375-.6875-74.140625 1.691406-92.9375-2.605469zm222.6875-15.449219-4.386719-12.101562c-19.042968-52.542969-69.390625-87.84375-125.28125-87.84375-55.136718 0-104.664062 33.925781-124.453125 85.621094l-5.109375 13.351562c-30.882812-22.023437-47.40625-58.730468-42.632812-96.929687l14.410156-115.273438c15.664062 16.910157 36.535156 28.816407 59.867188 33.28125v21.28125c0 11.046875 8.953124 20 20 20 11.046874 0 20-8.953125 20-20v-19.332031h117.332031v19.332031c0 11.046875 8.957031 20 20 20 11.046875 0 20-8.953125 20-20v-21.28125c23.332031-4.464843 44.203125-16.371093 59.871093-33.28125l14.410157 115.273438c4.878906 39.035156-12.496094 76.191406-44.027344 97.902343zm0 0" data-original="#000000" class="active-path" data-old_color="#000000" fill="#8E9B9C"/></g> </svg>
